<svg xmlns="http://www.w3.org/2000/svg" xmlns:xlink="http://www.w3.org/1999/xlink" width="2592pt" height="988pt" viewBox="0.00 0.00 2592.00 988.00">
<g id="graph0" class="graph" transform="scale(1 1) rotate(0) translate(21.6 966)">
<title>EVPN_Fabric</title>
<polygon fill="white" stroke="none" points="-21.6,21.6 -21.6,-966 2570.18,-966 2570.18,21.6 -21.6,21.6"/>
<text xml:space="preserve" text-anchor="middle" x="1274.29" y="-924.2" font-family="Helvetica,sans-Serif" font-size="18.00">EVPN / VXLAN Fabric — OSPF Underlay + BGP EVPN Overlay + Anycast Gateway</text>
<!-- DC1 -->
<g id="node1" class="node">
<title>DC1</title>
<path fill="#bfd7ff" stroke="black" stroke-width="1.4" d="M1379.01,-914.8C1379.01,-914.8 1255.57,-914.8 1255.57,-914.8 1249.57,-914.8 1243.57,-908.8 1243.57,-902.8 1243.57,-902.8 1243.57,-862.4 1243.57,-862.4 1243.57,-856.4 1249.57,-850.4 1255.57,-850.4 1255.57,-850.4 1379.01,-850.4 1379.01,-850.4 1385.01,-850.4 1391.01,-856.4 1391.01,-862.4 1391.01,-862.4 1391.01,-902.8 1391.01,-902.8 1391.01,-908.8 1385.01,-914.8 1379.01,-914.8"/>
<text xml:space="preserve" text-anchor="start" x="1273.12" y="-899.6" font-family="Helvetica,sans-Serif" font-size="10.00">      </text>
<text xml:space="preserve" text-anchor="start" x="1289.79" y="-899.6" font-family="Helvetica,sans-Serif" font-weight="bold" font-size="10.00">DATA CENTER</text>
<text xml:space="preserve" text-anchor="start" x="1266.42" y="-889.6" font-family="Helvetica,sans-Serif" font-size="10.00">      NVR: 172.16.10.10</text>
<text xml:space="preserve" text-anchor="start" x="1259.47" y="-879.6" font-family="Helvetica,sans-Serif" font-size="10.00">      Storage: 172.16.20.10</text>
<text xml:space="preserve" text-anchor="start" x="1268.37" y="-869.6" font-family="Helvetica,sans-Serif" font-size="10.00">      GW: 172.16.254.1</text>
<text xml:space="preserve" text-anchor="start" x="1253.65" y="-859.6" font-family="Helvetica,sans-Serif" font-size="10.00">      Services / applications    </text>
</g>
<!-- BL_A -->
<g id="node2" class="node">
<title>BL_A</title>
<path fill="#ffd77a" stroke="black" stroke-width="1.4" d="M1154.2,-767.6C1154.2,-767.6 962.38,-767.6 962.38,-767.6 956.38,-767.6 950.38,-761.6 950.38,-755.6 950.38,-755.6 950.38,-705.2 950.38,-705.2 950.38,-699.2 956.38,-693.2 962.38,-693.2 962.38,-693.2 1154.2,-693.2 1154.2,-693.2 1160.2,-693.2 1166.2,-699.2 1166.2,-705.2 1166.2,-705.2 1166.2,-755.6 1166.2,-755.6 1166.2,-761.6 1160.2,-767.6 1154.2,-767.6"/>
<text xml:space="preserve" text-anchor="start" x="1016.89" y="-752.4" font-family="Helvetica,sans-Serif" font-size="10.00">      </text>
<text xml:space="preserve" text-anchor="start" x="1033.56" y="-752.4" font-family="Helvetica,sans-Serif" font-weight="bold" font-size="10.00">Border Leaf A</text>
<text xml:space="preserve" text-anchor="start" x="991.02" y="-742.4" font-family="Helvetica,sans-Serif" font-size="10.00">      Lo0 / VTEP: 10.255.0.1/32</text>
<text xml:space="preserve" text-anchor="start" x="983.52" y="-732.4" font-family="Helvetica,sans-Serif" font-size="10.00">      Lo1 / BGP RID: 10.255.1.1/32</text>
<text xml:space="preserve" text-anchor="start" x="997.43" y="-722.4" font-family="Helvetica,sans-Serif" font-size="10.00">      Underlay: OSPF Area 0</text>
<text xml:space="preserve" text-anchor="start" x="992.99" y="-712.4" font-family="Helvetica,sans-Serif" font-size="10.00">      Overlay: BGP EVPN peer</text>
<text xml:space="preserve" text-anchor="start" x="960.46" y="-702.4" font-family="Helvetica,sans-Serif" font-size="10.00">      Northbound: DC handoff / route policy    </text>
</g>
<!-- DC1&#45;&gt;BL_A -->
<!-- DC1&#45;&gt;BL_A -->
<g id="edge27" class="edge">
<title>DC1-&gt;BL_A</title>
<path fill="none" stroke="#ff8c00" stroke-width="1.2" d="M1262.36,-849.75C1223.32,-827.1 1170.56,-796.51 1128.46,-772.1"/>
<polygon fill="#ff8c00" stroke="#ff8c00" stroke-width="1.2" points="1129.62,-770.34 1123.37,-769.14 1127.51,-773.97 1129.62,-770.34"/>
<text xml:space="preserve" text-anchor="middle" x="1254.45" y="-806.3" font-family="Helvetica,sans-Serif" font-size="9.00">L3 to DC</text>
</g>
<!-- BL_B -->
<g id="node3" class="node">
<title>BL_B</title>
<path fill="#ffd77a" stroke="black" stroke-width="1.4" d="M1581.2,-767.6C1581.2,-767.6 1389.38,-767.6 1389.38,-767.6 1383.38,-767.6 1377.38,-761.6 1377.38,-755.6 1377.38,-755.6 1377.38,-705.2 1377.38,-705.2 1377.38,-699.2 1383.38,-693.2 1389.38,-693.2 1389.38,-693.2 1581.2,-693.2 1581.2,-693.2 1587.2,-693.2 1593.2,-699.2 1593.2,-705.2 1593.2,-705.2 1593.2,-755.6 1593.2,-755.6 1593.2,-761.6 1587.2,-767.6 1581.2,-767.6"/>
<text xml:space="preserve" text-anchor="start" x="1443.89" y="-752.4" font-family="Helvetica,sans-Serif" font-size="10.00">      </text>
<text xml:space="preserve" text-anchor="start" x="1460.56" y="-752.4" font-family="Helvetica,sans-Serif" font-weight="bold" font-size="10.00">Border Leaf B</text>
<text xml:space="preserve" text-anchor="start" x="1418.02" y="-742.4" font-family="Helvetica,sans-Serif" font-size="10.00">      Lo0 / VTEP: 10.255.0.2/32</text>
<text xml:space="preserve" text-anchor="start" x="1410.52" y="-732.4" font-family="Helvetica,sans-Serif" font-size="10.00">      Lo1 / BGP RID: 10.255.1.2/32</text>
<text xml:space="preserve" text-anchor="start" x="1424.43" y="-722.4" font-family="Helvetica,sans-Serif" font-size="10.00">      Underlay: OSPF Area 0</text>
<text xml:space="preserve" text-anchor="start" x="1419.99" y="-712.4" font-family="Helvetica,sans-Serif" font-size="10.00">      Overlay: BGP EVPN peer</text>
<text xml:space="preserve" text-anchor="start" x="1387.46" y="-702.4" font-family="Helvetica,sans-Serif" font-size="10.00">      Northbound: DC handoff / route policy    </text>
</g>
<!-- DC1&#45;&gt;BL_B -->
<!-- DC1&#45;&gt;BL_B -->
<g id="edge28" class="edge">
<title>DC1-&gt;BL_B</title>
<path fill="none" stroke="#ff8c00" stroke-width="1.2" d="M1352.92,-849.75C1377.83,-827.48 1411.34,-797.51 1438.42,-773.31"/>
<polygon fill="#ff8c00" stroke="#ff8c00" stroke-width="1.2" points="1439.66,-775.01 1442.74,-769.44 1436.86,-771.88 1439.66,-775.01"/>
<text xml:space="preserve" text-anchor="middle" x="1441.72" y="-806.3" font-family="Helvetica,sans-Serif" font-size="9.00">L3 to DC</text>
</g>
<!-- BL_A&#45;&gt;BL_B -->
<!-- BL_A&#45;&gt;BL_B -->
<g id="edge26" class="edge">
<title>BL_A-&gt;BL_B</title>
<path fill="none" stroke="#666666" stroke-width="1.2" stroke-dasharray="5,2" d="M1166.87,-730.4C1231.23,-730.4 1312.53,-730.4 1376.87,-730.4"/>
<text xml:space="preserve" text-anchor="middle" x="1271.79" y="-736.1" font-family="Helvetica,sans-Serif" font-size="9.00">border pair interconnect / vPC or MLAG</text>
</g>
<!-- SP1 -->
<g id="node4" class="node">
<title>SP1</title>
<path fill="#d6c6ff" stroke="black" stroke-width="1.4" d="M1232.56,-610.4C1232.56,-610.4 1088.02,-610.4 1088.02,-610.4 1082.02,-610.4 1076.02,-604.4 1076.02,-598.4 1076.02,-598.4 1076.02,-568 1076.02,-568 1076.02,-562 1082.02,-556 1088.02,-556 1088.02,-556 1232.56,-556 1232.56,-556 1238.56,-556 1244.56,-562 1244.56,-568 1244.56,-568 1244.56,-598.4 1244.56,-598.4 1244.56,-604.4 1238.56,-610.4 1232.56,-610.4"/>
<text xml:space="preserve" text-anchor="start" x="1134.17" y="-595.2" font-family="Helvetica,sans-Serif" font-size="10.00">      </text>
<text xml:space="preserve" text-anchor="start" x="1150.84" y="-595.2" font-family="Helvetica,sans-Serif" font-weight="bold" font-size="10.00">Spine 1</text>
<text xml:space="preserve" text-anchor="start" x="1104.69" y="-585.2" font-family="Helvetica,sans-Serif" font-size="10.00">      Lo0: 10.255.255.1/32</text>
<text xml:space="preserve" text-anchor="start" x="1086.1" y="-575.2" font-family="Helvetica,sans-Serif" font-size="10.00">      Role: OSPF underlay / ECMP</text>
<text xml:space="preserve" text-anchor="start" x="1090.26" y="-565.2" font-family="Helvetica,sans-Serif" font-size="10.00">      Design: OSPF-only spine    </text>
</g>
<!-- BL_A&#45;&gt;SP1 -->
<g id="edge29" class="edge">
<title>BL_A-&gt;SP1</title>
<path fill="none" stroke="#ff8c00" stroke-width="1.2" d="M1084.03,-692.76C1100.43,-669.41 1121.49,-639.43 1137.32,-616.9"/>
<polygon fill="#ff8c00" stroke="#ff8c00" stroke-width="1.2" points="1138.87,-618.35 1140.6,-612.23 1135.43,-615.94 1138.87,-618.35"/>
<text xml:space="preserve" text-anchor="middle" x="1129.53" y="-649.1" font-family="Helvetica,sans-Serif" font-size="9.00">OSPF underlay</text>
</g>
<!-- SP2 -->
<g id="node5" class="node">
<title>SP2</title>
<path fill="#d6c6ff" stroke="black" stroke-width="1.4" d="M1490.56,-610.4C1490.56,-610.4 1346.02,-610.4 1346.02,-610.4 1340.02,-610.4 1334.02,-604.4 1334.02,-598.4 1334.02,-598.4 1334.02,-568 1334.02,-568 1334.02,-562 1340.02,-556 1346.02,-556 1346.02,-556 1490.56,-556 1490.56,-556 1496.56,-556 1502.56,-562 1502.56,-568 1502.56,-568 1502.56,-598.4 1502.56,-598.4 1502.56,-604.4 1496.56,-610.4 1490.56,-610.4"/>
<text xml:space="preserve" text-anchor="start" x="1392.17" y="-595.2" font-family="Helvetica,sans-Serif" font-size="10.00">      </text>
<text xml:space="preserve" text-anchor="start" x="1408.84" y="-595.2" font-family="Helvetica,sans-Serif" font-weight="bold" font-size="10.00">Spine 2</text>
<text xml:space="preserve" text-anchor="start" x="1362.69" y="-585.2" font-family="Helvetica,sans-Serif" font-size="10.00">      Lo0: 10.255.255.2/32</text>
<text xml:space="preserve" text-anchor="start" x="1344.1" y="-575.2" font-family="Helvetica,sans-Serif" font-size="10.00">      Role: OSPF underlay / ECMP</text>
<text xml:space="preserve" text-anchor="start" x="1348.26" y="-565.2" font-family="Helvetica,sans-Serif" font-size="10.00">      Design: OSPF-only spine    </text>
</g>
<!-- BL_A&#45;&gt;SP2 -->
<g id="edge30" class="edge">
<title>BL_A-&gt;SP2</title>
<path fill="none" stroke="#ff8c00" stroke-width="1.2" d="M1149.6,-692.57C1210.03,-668.2 1288.23,-636.66 1344.68,-613.89"/>
<polygon fill="#ff8c00" stroke="#ff8c00" stroke-width="1.2" points="1345.33,-615.89 1350.11,-611.7 1343.76,-612 1345.33,-615.89"/>
<text xml:space="preserve" text-anchor="middle" x="1259.53" y="-649.1" font-family="Helvetica,sans-Serif" font-size="9.00">OSPF underlay</text>
</g>
<!-- BL_B&#45;&gt;SP1 -->
<g id="edge31" class="edge">
<title>BL_B-&gt;SP1</title>
<path fill="none" stroke="#ff8c00" stroke-width="1.2" d="M1402.86,-692.57C1348.53,-668.3 1278.27,-636.91 1227.37,-614.17"/>
<polygon fill="#ff8c00" stroke="#ff8c00" stroke-width="1.2" points="1228.31,-612.29 1221.98,-611.76 1226.6,-616.12 1228.31,-612.29"/>
<text xml:space="preserve" text-anchor="middle" x="1353.55" y="-649.1" font-family="Helvetica,sans-Serif" font-size="9.00">OSPF underlay</text>
</g>
<!-- BL_B&#45;&gt;SP2 -->
<g id="edge32" class="edge">
<title>BL_B-&gt;SP2</title>
<path fill="none" stroke="#ff8c00" stroke-width="1.2" d="M1468.38,-692.76C1457.75,-669.71 1444.13,-640.2 1433.78,-617.77"/>
<polygon fill="#ff8c00" stroke="#ff8c00" stroke-width="1.2" points="1435.72,-616.96 1431.3,-612.4 1431.91,-618.72 1435.72,-616.96"/>
<text xml:space="preserve" text-anchor="middle" x="1482.55" y="-649.1" font-family="Helvetica,sans-Serif" font-size="9.00">OSPF underlay</text>
</g>
<!-- CAB1_A -->
<g id="node6" class="node">
<title>CAB1_A</title>
<path fill="#bfe7bf" stroke="black" stroke-width="1.4" d="M166.58,-409C166.58,-409 12,-409 12,-409 6,-409 0,-403 0,-397 0,-397 0,-316.6 0,-316.6 0,-310.6 6,-304.6 12,-304.6 12,-304.6 166.58,-304.6 166.58,-304.6 172.58,-304.6 178.58,-310.6 178.58,-316.6 178.58,-316.6 178.58,-397 178.58,-397 178.58,-403 172.58,-409 166.58,-409"/>
<text xml:space="preserve" text-anchor="start" x="47.06" y="-393.8" font-family="Helvetica,sans-Serif" font-weight="bold" font-size="10.00">Cabinet 1 - Leaf A</text>
<text xml:space="preserve" text-anchor="start" x="27.58" y="-383.8" font-family="Helvetica,sans-Serif" font-size="10.00">Lo0 / VTEP: 10.255.10.1/32</text>
<text xml:space="preserve" text-anchor="start" x="36.77" y="-373.8" font-family="Helvetica,sans-Serif" font-size="10.00">Underlay: OSPF Area 0</text>
<text xml:space="preserve" text-anchor="start" x="32.32" y="-363.8" font-family="Helvetica,sans-Serif" font-size="10.00">Overlay: BGP EVPN peer</text>
<text xml:space="preserve" text-anchor="start" x="23.99" y="-353.8" font-family="Helvetica,sans-Serif" font-size="10.00">VRF_CAMERAS / VNI 50110</text>
<text xml:space="preserve" text-anchor="start" x="13.41" y="-343.8" font-family="Helvetica,sans-Serif" font-size="10.00">VLAN 110 / GW 192.168.110.1/24</text>
<text xml:space="preserve" text-anchor="start" x="24.26" y="-333.8" font-family="Helvetica,sans-Serif" font-size="10.00">VRF_SENSORS / VNI 50210</text>
<text xml:space="preserve" text-anchor="start" x="13.41" y="-323.8" font-family="Helvetica,sans-Serif" font-size="10.00">VLAN 210 / GW 192.168.210.1/24</text>
<text xml:space="preserve" text-anchor="start" x="10.08" y="-313.8" font-family="Helvetica,sans-Serif" font-size="10.00">Anycast GW MAC: 0000.2222.3333</text>
</g>
<!-- SP1&#45;&gt;CAB1_A -->
<g id="edge33" class="edge">
<title>SP1-&gt;CAB1_A</title>
<path fill="none" stroke="#ff8c00" stroke-width="1.2" d="M1075.35,-565.25C879.01,-523.74 394.64,-421.35 186.7,-377.39"/>
<polygon fill="#ff8c00" stroke="#ff8c00" stroke-width="1.2" points="187.2,-375.35 180.89,-376.16 186.33,-379.46 187.2,-375.35"/>
</g>
<!-- CAB1_B -->
<g id="node7" class="node">
<title>CAB1_B</title>
<path fill="#bfe7bf" stroke="black" stroke-width="1.4" d="M544.58,-409C544.58,-409 390,-409 390,-409 384,-409 378,-403 378,-397 378,-397 378,-316.6 378,-316.6 378,-310.6 384,-304.6 390,-304.6 390,-304.6 544.58,-304.6 544.58,-304.6 550.58,-304.6 556.58,-310.6 556.58,-316.6 556.58,-316.6 556.58,-397 556.58,-397 556.58,-403 550.58,-409 544.58,-409"/>
<text xml:space="preserve" text-anchor="start" x="425.06" y="-393.8" font-family="Helvetica,sans-Serif" font-weight="bold" font-size="10.00">Cabinet 1 - Leaf B</text>
<text xml:space="preserve" text-anchor="start" x="405.58" y="-383.8" font-family="Helvetica,sans-Serif" font-size="10.00">Lo0 / VTEP: 10.255.10.2/32</text>
<text xml:space="preserve" text-anchor="start" x="414.77" y="-373.8" font-family="Helvetica,sans-Serif" font-size="10.00">Underlay: OSPF Area 0</text>
<text xml:space="preserve" text-anchor="start" x="410.32" y="-363.8" font-family="Helvetica,sans-Serif" font-size="10.00">Overlay: BGP EVPN peer</text>
<text xml:space="preserve" text-anchor="start" x="401.99" y="-353.8" font-family="Helvetica,sans-Serif" font-size="10.00">VRF_CAMERAS / VNI 50110</text>
<text xml:space="preserve" text-anchor="start" x="391.41" y="-343.8" font-family="Helvetica,sans-Serif" font-size="10.00">VLAN 110 / GW 192.168.110.1/24</text>
<text xml:space="preserve" text-anchor="start" x="402.26" y="-333.8" font-family="Helvetica,sans-Serif" font-size="10.00">VRF_SENSORS / VNI 50210</text>
<text xml:space="preserve" text-anchor="start" x="391.41" y="-323.8" font-family="Helvetica,sans-Serif" font-size="10.00">VLAN 210 / GW 192.168.210.1/24</text>
<text xml:space="preserve" text-anchor="start" x="388.08" y="-313.8" font-family="Helvetica,sans-Serif" font-size="10.00">Anycast GW MAC: 0000.2222.3333</text>
</g>
<!-- SP1&#45;&gt;CAB1_B -->
<g id="edge34" class="edge">
<title>SP1-&gt;CAB1_B</title>
<path fill="none" stroke="#ff8c00" stroke-width="1.2" d="M1075.66,-555.55C946.45,-513.34 700.67,-433.05 564.39,-388.52"/>
<polygon fill="#ff8c00" stroke="#ff8c00" stroke-width="1.2" points="565.26,-386.6 558.91,-386.73 563.96,-390.59 565.26,-386.6"/>
</g>
<!-- YD1_A -->
<g id="node8" class="node">
<title>YD1_A</title>
<path fill="#bfe7bf" stroke="black" stroke-width="1.4" d="M830.58,-409C830.58,-409 676,-409 676,-409 670,-409 664,-403 664,-397 664,-397 664,-316.6 664,-316.6 664,-310.6 670,-304.6 676,-304.6 676,-304.6 830.58,-304.6 830.58,-304.6 836.58,-304.6 842.58,-310.6 842.58,-316.6 842.58,-316.6 842.58,-397 842.58,-397 842.58,-403 836.58,-409 830.58,-409"/>
<text xml:space="preserve" text-anchor="start" x="718.28" y="-393.8" font-family="Helvetica,sans-Serif" font-weight="bold" font-size="10.00">Yard 1 - Leaf A</text>
<text xml:space="preserve" text-anchor="start" x="691.58" y="-383.8" font-family="Helvetica,sans-Serif" font-size="10.00">Lo0 / VTEP: 10.255.20.1/32</text>
<text xml:space="preserve" text-anchor="start" x="700.77" y="-373.8" font-family="Helvetica,sans-Serif" font-size="10.00">Underlay: OSPF Area 0</text>
<text xml:space="preserve" text-anchor="start" x="696.32" y="-363.8" font-family="Helvetica,sans-Serif" font-size="10.00">Overlay: BGP EVPN peer</text>
<text xml:space="preserve" text-anchor="start" x="687.99" y="-353.8" font-family="Helvetica,sans-Serif" font-size="10.00">VRF_CAMERAS / VNI 50110</text>
<text xml:space="preserve" text-anchor="start" x="677.41" y="-343.8" font-family="Helvetica,sans-Serif" font-size="10.00">VLAN 110 / GW 192.168.110.1/24</text>
<text xml:space="preserve" text-anchor="start" x="688.26" y="-333.8" font-family="Helvetica,sans-Serif" font-size="10.00">VRF_SENSORS / VNI 50210</text>
<text xml:space="preserve" text-anchor="start" x="677.41" y="-323.8" font-family="Helvetica,sans-Serif" font-size="10.00">VLAN 210 / GW 192.168.210.1/24</text>
<text xml:space="preserve" text-anchor="start" x="674.08" y="-313.8" font-family="Helvetica,sans-Serif" font-size="10.00">Anycast GW MAC: 0000.2222.3333</text>
</g>
<!-- SP1&#45;&gt;YD1_A -->
<g id="edge35" class="edge">
<title>SP1-&gt;YD1_A</title>
<path fill="none" stroke="#ff8c00" stroke-width="1.2" d="M1110.38,-555.44C1045.76,-519.49 931.73,-456.06 849.9,-410.54"/>
<polygon fill="#ff8c00" stroke="#ff8c00" stroke-width="1.2" points="850.93,-408.71 844.67,-407.63 848.89,-412.38 850.93,-408.71"/>
</g>
<!-- YD1_B -->
<g id="node9" class="node">
<title>YD1_B</title>
<path fill="#bfe7bf" stroke="black" stroke-width="1.4" d="M1208.58,-409C1208.58,-409 1054,-409 1054,-409 1048,-409 1042,-403 1042,-397 1042,-397 1042,-316.6 1042,-316.6 1042,-310.6 1048,-304.6 1054,-304.6 1054,-304.6 1208.58,-304.6 1208.58,-304.6 1214.58,-304.6 1220.58,-310.6 1220.58,-316.6 1220.58,-316.6 1220.58,-397 1220.58,-397 1220.58,-403 1214.58,-409 1208.58,-409"/>
<text xml:space="preserve" text-anchor="start" x="1096.28" y="-393.8" font-family="Helvetica,sans-Serif" font-weight="bold" font-size="10.00">Yard 1 - Leaf B</text>
<text xml:space="preserve" text-anchor="start" x="1069.58" y="-383.8" font-family="Helvetica,sans-Serif" font-size="10.00">Lo0 / VTEP: 10.255.20.2/32</text>
<text xml:space="preserve" text-anchor="start" x="1078.77" y="-373.8" font-family="Helvetica,sans-Serif" font-size="10.00">Underlay: OSPF Area 0</text>
<text xml:space="preserve" text-anchor="start" x="1074.32" y="-363.8" font-family="Helvetica,sans-Serif" font-size="10.00">Overlay: BGP EVPN peer</text>
<text xml:space="preserve" text-anchor="start" x="1065.99" y="-353.8" font-family="Helvetica,sans-Serif" font-size="10.00">VRF_CAMERAS / VNI 50110</text>
<text xml:space="preserve" text-anchor="start" x="1055.41" y="-343.8" font-family="Helvetica,sans-Serif" font-size="10.00">VLAN 110 / GW 192.168.110.1/24</text>
<text xml:space="preserve" text-anchor="start" x="1066.26" y="-333.8" font-family="Helvetica,sans-Serif" font-size="10.00">VRF_SENSORS / VNI 50210</text>
<text xml:space="preserve" text-anchor="start" x="1055.41" y="-323.8" font-family="Helvetica,sans-Serif" font-size="10.00">VLAN 210 / GW 192.168.210.1/24</text>
<text xml:space="preserve" text-anchor="start" x="1052.08" y="-313.8" font-family="Helvetica,sans-Serif" font-size="10.00">Anycast GW MAC: 0000.2222.3333</text>
</g>
<!-- SP1&#45;&gt;YD1_B -->
<g id="edge36" class="edge">
<title>SP1-&gt;YD1_B</title>
<path fill="none" stroke="#ff8c00" stroke-width="1.2" d="M1156.73,-555.44C1152.34,-521.17 1144.76,-461.93 1139.01,-417.04"/>
<polygon fill="#ff8c00" stroke="#ff8c00" stroke-width="1.2" points="1141.1,-416.88 1138.26,-411.2 1136.94,-417.42 1141.1,-416.88"/>
</g>
<!-- BLDA_A -->
<g id="node10" class="node">
<title>BLDA_A</title>
<path fill="#bfe7bf" stroke="black" stroke-width="1.4" d="M1494.58,-409C1494.58,-409 1340,-409 1340,-409 1334,-409 1328,-403 1328,-397 1328,-397 1328,-316.6 1328,-316.6 1328,-310.6 1334,-304.6 1340,-304.6 1340,-304.6 1494.58,-304.6 1494.58,-304.6 1500.58,-304.6 1506.58,-310.6 1506.58,-316.6 1506.58,-316.6 1506.58,-397 1506.58,-397 1506.58,-403 1500.58,-409 1494.58,-409"/>
<text xml:space="preserve" text-anchor="start" x="1372.57" y="-393.8" font-family="Helvetica,sans-Serif" font-weight="bold" font-size="10.00">Building A - Leaf A</text>
<text xml:space="preserve" text-anchor="start" x="1355.58" y="-383.8" font-family="Helvetica,sans-Serif" font-size="10.00">Lo0 / VTEP: 10.255.30.1/32</text>
<text xml:space="preserve" text-anchor="start" x="1364.77" y="-373.8" font-family="Helvetica,sans-Serif" font-size="10.00">Underlay: OSPF Area 0</text>
<text xml:space="preserve" text-anchor="start" x="1360.32" y="-363.8" font-family="Helvetica,sans-Serif" font-size="10.00">Overlay: BGP EVPN peer</text>
<text xml:space="preserve" text-anchor="start" x="1351.99" y="-353.8" font-family="Helvetica,sans-Serif" font-size="10.00">VRF_CAMERAS / VNI 50110</text>
<text xml:space="preserve" text-anchor="start" x="1341.41" y="-343.8" font-family="Helvetica,sans-Serif" font-size="10.00">VLAN 110 / GW 192.168.110.1/24</text>
<text xml:space="preserve" text-anchor="start" x="1352.26" y="-333.8" font-family="Helvetica,sans-Serif" font-size="10.00">VRF_SENSORS / VNI 50210</text>
<text xml:space="preserve" text-anchor="start" x="1341.41" y="-323.8" font-family="Helvetica,sans-Serif" font-size="10.00">VLAN 210 / GW 192.168.210.1/24</text>
<text xml:space="preserve" text-anchor="start" x="1338.08" y="-313.8" font-family="Helvetica,sans-Serif" font-size="10.00">Anycast GW MAC: 0000.2222.3333</text>
</g>
<!-- SP1&#45;&gt;BLDA_A -->
<g id="edge37" class="edge">
<title>SP1-&gt;BLDA_A</title>
<path fill="none" stroke="#ff8c00" stroke-width="1.2" d="M1191.8,-555.44C1231.36,-520.59 1300.23,-459.92 1351.48,-414.77"/>
<polygon fill="#ff8c00" stroke="#ff8c00" stroke-width="1.2" points="1352.85,-416.36 1355.97,-410.82 1350.07,-413.21 1352.85,-416.36"/>
</g>
<!-- BLDA_B -->
<g id="node11" class="node">
<title>BLDA_B</title>
<path fill="#bfe7bf" stroke="black" stroke-width="1.4" d="M1872.58,-409C1872.58,-409 1718,-409 1718,-409 1712,-409 1706,-403 1706,-397 1706,-397 1706,-316.6 1706,-316.6 1706,-310.6 1712,-304.6 1718,-304.6 1718,-304.6 1872.58,-304.6 1872.58,-304.6 1878.58,-304.6 1884.58,-310.6 1884.58,-316.6 1884.58,-316.6 1884.58,-397 1884.58,-397 1884.58,-403 1878.58,-409 1872.58,-409"/>
<text xml:space="preserve" text-anchor="start" x="1750.57" y="-393.8" font-family="Helvetica,sans-Serif" font-weight="bold" font-size="10.00">Building A - Leaf B</text>
<text xml:space="preserve" text-anchor="start" x="1733.58" y="-383.8" font-family="Helvetica,sans-Serif" font-size="10.00">Lo0 / VTEP: 10.255.30.2/32</text>
<text xml:space="preserve" text-anchor="start" x="1742.77" y="-373.8" font-family="Helvetica,sans-Serif" font-size="10.00">Underlay: OSPF Area 0</text>
<text xml:space="preserve" text-anchor="start" x="1738.32" y="-363.8" font-family="Helvetica,sans-Serif" font-size="10.00">Overlay: BGP EVPN peer</text>
<text xml:space="preserve" text-anchor="start" x="1729.99" y="-353.8" font-family="Helvetica,sans-Serif" font-size="10.00">VRF_CAMERAS / VNI 50110</text>
<text xml:space="preserve" text-anchor="start" x="1719.41" y="-343.8" font-family="Helvetica,sans-Serif" font-size="10.00">VLAN 110 / GW 192.168.110.1/24</text>
<text xml:space="preserve" text-anchor="start" x="1730.26" y="-333.8" font-family="Helvetica,sans-Serif" font-size="10.00">VRF_SENSORS / VNI 50210</text>
<text xml:space="preserve" text-anchor="start" x="1719.41" y="-323.8" font-family="Helvetica,sans-Serif" font-size="10.00">VLAN 210 / GW 192.168.210.1/24</text>
<text xml:space="preserve" text-anchor="start" x="1716.08" y="-313.8" font-family="Helvetica,sans-Serif" font-size="10.00">Anycast GW MAC: 0000.2222.3333</text>
</g>
<!-- SP1&#45;&gt;BLDA_B -->
<g id="edge38" class="edge">
<title>SP1-&gt;BLDA_B</title>
<path fill="none" stroke="#ff8c00" stroke-width="1.2" d="M1238.47,-555.33C1354.54,-513.94 1572.26,-436.32 1698.32,-391.37"/>
<polygon fill="#ff8c00" stroke="#ff8c00" stroke-width="1.2" points="1698.71,-393.46 1703.66,-389.47 1697.3,-389.51 1698.71,-393.46"/>
</g>
<!-- YD2_A -->
<g id="node12" class="node">
<title>YD2_A</title>
<path fill="#bfe7bf" stroke="black" stroke-width="1.4" d="M2158.58,-409C2158.58,-409 2004,-409 2004,-409 1998,-409 1992,-403 1992,-397 1992,-397 1992,-316.6 1992,-316.6 1992,-310.6 1998,-304.6 2004,-304.6 2004,-304.6 2158.58,-304.6 2158.58,-304.6 2164.58,-304.6 2170.58,-310.6 2170.58,-316.6 2170.58,-316.6 2170.58,-397 2170.58,-397 2170.58,-403 2164.58,-409 2158.58,-409"/>
<text xml:space="preserve" text-anchor="start" x="2046.28" y="-393.8" font-family="Helvetica,sans-Serif" font-weight="bold" font-size="10.00">Yard 2 - Leaf A</text>
<text xml:space="preserve" text-anchor="start" x="2019.58" y="-383.8" font-family="Helvetica,sans-Serif" font-size="10.00">Lo0 / VTEP: 10.255.40.1/32</text>
<text xml:space="preserve" text-anchor="start" x="2028.77" y="-373.8" font-family="Helvetica,sans-Serif" font-size="10.00">Underlay: OSPF Area 0</text>
<text xml:space="preserve" text-anchor="start" x="2024.32" y="-363.8" font-family="Helvetica,sans-Serif" font-size="10.00">Overlay: BGP EVPN peer</text>
<text xml:space="preserve" text-anchor="start" x="2015.99" y="-353.8" font-family="Helvetica,sans-Serif" font-size="10.00">VRF_CAMERAS / VNI 50110</text>
<text xml:space="preserve" text-anchor="start" x="2005.41" y="-343.8" font-family="Helvetica,sans-Serif" font-size="10.00">VLAN 110 / GW 192.168.110.1/24</text>
<text xml:space="preserve" text-anchor="start" x="2016.26" y="-333.8" font-family="Helvetica,sans-Serif" font-size="10.00">VRF_SENSORS / VNI 50210</text>
<text xml:space="preserve" text-anchor="start" x="2005.41" y="-323.8" font-family="Helvetica,sans-Serif" font-size="10.00">VLAN 210 / GW 192.168.210.1/24</text>
<text xml:space="preserve" text-anchor="start" x="2002.08" y="-313.8" font-family="Helvetica,sans-Serif" font-size="10.00">Anycast GW MAC: 0000.2222.3333</text>
</g>
<!-- SP1&#45;&gt;YD2_A -->
<g id="edge39" class="edge">
<title>SP1-&gt;YD2_A</title>
<path fill="none" stroke="#ff8c00" stroke-width="1.2" d="M1244.87,-562.41C1416.04,-520.33 1802.57,-425.31 1983.91,-380.74"/>
<polygon fill="#ff8c00" stroke="#ff8c00" stroke-width="1.2" points="1984.25,-382.82 1989.57,-379.35 1983.24,-378.74 1984.25,-382.82"/>
</g>
<!-- YD2_B -->
<g id="node13" class="node">
<title>YD2_B</title>
<path fill="#bfe7bf" stroke="black" stroke-width="1.4" d="M2536.58,-409C2536.58,-409 2382,-409 2382,-409 2376,-409 2370,-403 2370,-397 2370,-397 2370,-316.6 2370,-316.6 2370,-310.6 2376,-304.6 2382,-304.6 2382,-304.6 2536.58,-304.6 2536.58,-304.6 2542.58,-304.6 2548.58,-310.6 2548.58,-316.6 2548.58,-316.6 2548.58,-397 2548.58,-397 2548.58,-403 2542.58,-409 2536.58,-409"/>
<text xml:space="preserve" text-anchor="start" x="2424.28" y="-393.8" font-family="Helvetica,sans-Serif" font-weight="bold" font-size="10.00">Yard 2 - Leaf B</text>
<text xml:space="preserve" text-anchor="start" x="2397.58" y="-383.8" font-family="Helvetica,sans-Serif" font-size="10.00">Lo0 / VTEP: 10.255.40.2/32</text>
<text xml:space="preserve" text-anchor="start" x="2406.77" y="-373.8" font-family="Helvetica,sans-Serif" font-size="10.00">Underlay: OSPF Area 0</text>
<text xml:space="preserve" text-anchor="start" x="2402.32" y="-363.8" font-family="Helvetica,sans-Serif" font-size="10.00">Overlay: BGP EVPN peer</text>
<text xml:space="preserve" text-anchor="start" x="2393.99" y="-353.8" font-family="Helvetica,sans-Serif" font-size="10.00">VRF_CAMERAS / VNI 50110</text>
<text xml:space="preserve" text-anchor="start" x="2383.41" y="-343.8" font-family="Helvetica,sans-Serif" font-size="10.00">VLAN 110 / GW 192.168.110.1/24</text>
<text xml:space="preserve" text-anchor="start" x="2394.26" y="-333.8" font-family="Helvetica,sans-Serif" font-size="10.00">VRF_SENSORS / VNI 50210</text>
<text xml:space="preserve" text-anchor="start" x="2383.41" y="-323.8" font-family="Helvetica,sans-Serif" font-size="10.00">VLAN 210 / GW 192.168.210.1/24</text>
<text xml:space="preserve" text-anchor="start" x="2380.08" y="-313.8" font-family="Helvetica,sans-Serif" font-size="10.00">Anycast GW MAC: 0000.2222.3333</text>
</g>
<!-- SP1&#45;&gt;YD2_B -->
<g id="edge40" class="edge">
<title>SP1-&gt;YD2_B</title>
<path fill="none" stroke="#ff8c00" stroke-width="1.2" d="M1245.02,-568.43C1476.12,-528.15 2116.47,-416.55 2361.86,-373.78"/>
<polygon fill="#ff8c00" stroke="#ff8c00" stroke-width="1.2" points="2362.02,-375.88 2367.57,-372.79 2361.3,-371.75 2362.02,-375.88"/>
</g>
<!-- SP2&#45;&gt;CAB1_A -->
<g id="edge41" class="edge">
<title>SP2-&gt;CAB1_A</title>
<path fill="none" stroke="#1e90ff" stroke-width="1.2" d="M1333.39,-568.74C1097.74,-528.59 436.55,-415.96 186.62,-373.38"/>
<polygon fill="#1e90ff" stroke="#1e90ff" stroke-width="1.2" points="187.05,-371.32 180.78,-372.39 186.34,-375.46 187.05,-371.32"/>
</g>
<!-- SP2&#45;&gt;CAB1_B -->
<g id="edge42" class="edge">
<title>SP2-&gt;CAB1_B</title>
<path fill="none" stroke="#1e90ff" stroke-width="1.2" d="M1333.48,-563.01C1157.04,-521 751.38,-424.43 564.63,-379.97"/>
<polygon fill="#1e90ff" stroke="#1e90ff" stroke-width="1.2" points="565.36,-377.99 559.03,-378.64 564.39,-382.07 565.36,-377.99"/>
</g>
<!-- SP2&#45;&gt;YD1_A -->
<g id="edge43" class="edge">
<title>SP2-&gt;YD1_A</title>
<path fill="none" stroke="#1e90ff" stroke-width="1.2" d="M1336.41,-555.33C1213.5,-513.48 981.73,-434.57 850.44,-389.87"/>
<polygon fill="#1e90ff" stroke="#1e90ff" stroke-width="1.2" points="851.17,-387.91 844.82,-387.96 849.82,-391.88 851.17,-387.91"/>
</g>
<!-- SP2&#45;&gt;YD1_B -->
<g id="edge44" class="edge">
<title>SP2-&gt;YD1_B</title>
<path fill="none" stroke="#1e90ff" stroke-width="1.2" d="M1383.1,-555.44C1338.74,-520.45 1261.38,-459.43 1204.08,-414.22"/>
<polygon fill="#1e90ff" stroke="#1e90ff" stroke-width="1.2" points="1205.69,-412.81 1199.68,-410.75 1203.09,-416.11 1205.69,-412.81"/>
</g>
<!-- SP2&#45;&gt;BLDA_A -->
<g id="edge45" class="edge">
<title>SP2-&gt;BLDA_A</title>
<path fill="none" stroke="#1e90ff" stroke-width="1.2" d="M1418.17,-555.44C1418.02,-521.17 1417.75,-461.93 1417.56,-417.04"/>
<polygon fill="#1e90ff" stroke="#1e90ff" stroke-width="1.2" points="1419.66,-417.21 1417.53,-411.22 1415.46,-417.22 1419.66,-417.21"/>
</g>
<!-- SP2&#45;&gt;BLDA_B -->
<g id="edge46" class="edge">
<title>SP2-&gt;BLDA_B</title>
<path fill="none" stroke="#1e90ff" stroke-width="1.2" d="M1464.52,-555.44C1523.13,-520.24 1625.63,-458.68 1701.04,-413.4"/>
<polygon fill="#1e90ff" stroke="#1e90ff" stroke-width="1.2" points="1701.71,-415.45 1705.77,-410.56 1699.55,-411.85 1701.71,-415.45"/>
</g>
<!-- SP2&#45;&gt;YD2_A -->
<g id="edge47" class="edge">
<title>SP2-&gt;YD2_A</title>
<path fill="none" stroke="#1e90ff" stroke-width="1.2" d="M1499.92,-555.33C1622.38,-513.51 1853.21,-434.68 1984.16,-389.97"/>
<polygon fill="#1e90ff" stroke="#1e90ff" stroke-width="1.2" points="1984.76,-391.98 1989.76,-388.05 1983.4,-388.01 1984.76,-391.98"/>
</g>
<!-- SP2&#45;&gt;YD2_B -->
<g id="edge48" class="edge">
<title>SP2-&gt;YD2_B</title>
<path fill="none" stroke="#1e90ff" stroke-width="1.2" d="M1503.04,-564.77C1694.48,-523.13 2159.4,-422.02 2362.11,-377.94"/>
<polygon fill="#1e90ff" stroke="#1e90ff" stroke-width="1.2" points="2362.31,-380.04 2367.73,-376.71 2361.42,-375.94 2362.31,-380.04"/>
</g>
<!-- CAB1_A&#45;&gt;CAB1_B -->
<!-- CAB1_A&#45;&gt;CAB1_B -->
<g id="edge22" class="edge">
<title>CAB1_A-&gt;CAB1_B</title>
<path fill="none" stroke="#666666" stroke-width="1.2" stroke-dasharray="5,2" d="M178.87,-356.8C238.8,-356.8 317.37,-356.8 377.37,-356.8"/>
<text xml:space="preserve" text-anchor="middle" x="278.29" y="-362.5" font-family="Helvetica,sans-Serif" font-size="9.00">site pair interconnect / vPC or MLAG</text>
</g>
<!-- DEV1 -->
<g id="node14" class="node">
<title>DEV1</title>
<path fill="#f5f5f5" stroke="black" stroke-width="1.4" d="M564.6,-221.8C564.6,-221.8 369.97,-221.8 369.97,-221.8 363.97,-221.8 357.97,-215.8 357.97,-209.8 357.97,-209.8 357.97,-169.4 357.97,-169.4 357.97,-163.4 363.97,-157.4 369.97,-157.4 369.97,-157.4 564.6,-157.4 564.6,-157.4 570.6,-157.4 576.6,-163.4 576.6,-169.4 576.6,-169.4 576.6,-209.8 576.6,-209.8 576.6,-215.8 570.6,-221.8 564.6,-221.8"/>
<text xml:space="preserve" text-anchor="start" x="413.66" y="-206.6" font-family="Helvetica,sans-Serif" font-weight="bold" font-size="10.00">Cabinet 1 End Devices</text>
<text xml:space="preserve" text-anchor="start" x="390.02" y="-196.6" font-family="Helvetica,sans-Serif" font-size="10.00">Camera-CAB1-01: 192.168.110.11</text>
<text xml:space="preserve" text-anchor="start" x="391.96" y="-186.6" font-family="Helvetica,sans-Serif" font-size="10.00">Sensor-CAB1-01: 192.168.210.11</text>
<text xml:space="preserve" text-anchor="start" x="368.05" y="-176.6" font-family="Helvetica,sans-Serif" font-size="10.00">Default GWs: 192.168.110.1 / 192.168.210.1</text>
<text xml:space="preserve" text-anchor="start" x="386.97" y="-166.6" font-family="Helvetica,sans-Serif" font-size="10.00">Dual-homed logically to site leaf pair</text>
</g>
<!-- CAB1_A&#45;&gt;DEV1 -->
<!-- CAB1_B&#45;&gt;YD1_A -->
<!-- CAB1_B&#45;&gt;DEV1 -->
<!-- YD1_A&#45;&gt;YD1_B -->
<!-- YD1_A&#45;&gt;YD1_B -->
<g id="edge23" class="edge">
<title>YD1_A-&gt;YD1_B</title>
<path fill="none" stroke="#666666" stroke-width="1.2" stroke-dasharray="5,2" d="M842.87,-356.8C902.8,-356.8 981.37,-356.8 1041.37,-356.8"/>
<text xml:space="preserve" text-anchor="middle" x="942.29" y="-362.5" font-family="Helvetica,sans-Serif" font-size="9.00">site pair interconnect / vPC or MLAG</text>
</g>
<!-- DEV2 -->
<g id="node15" class="node">
<title>DEV2</title>
<path fill="#f5f5f5" stroke="black" stroke-width="1.4" d="M1072.6,-221.8C1072.6,-221.8 877.97,-221.8 877.97,-221.8 871.97,-221.8 865.97,-215.8 865.97,-209.8 865.97,-209.8 865.97,-169.4 865.97,-169.4 865.97,-163.4 871.97,-157.4 877.97,-157.4 877.97,-157.4 1072.6,-157.4 1072.6,-157.4 1078.6,-157.4 1084.6,-163.4 1084.6,-169.4 1084.6,-169.4 1084.6,-209.8 1084.6,-209.8 1084.6,-215.8 1078.6,-221.8 1072.6,-221.8"/>
<text xml:space="preserve" text-anchor="start" x="928.88" y="-206.6" font-family="Helvetica,sans-Serif" font-weight="bold" font-size="10.00">Yard 1 End Devices</text>
<text xml:space="preserve" text-anchor="start" x="901.35" y="-196.6" font-family="Helvetica,sans-Serif" font-size="10.00">Camera-YD1-01: 192.168.110.21</text>
<text xml:space="preserve" text-anchor="start" x="903.29" y="-186.6" font-family="Helvetica,sans-Serif" font-size="10.00">Sensor-YD1-01: 192.168.210.21</text>
<text xml:space="preserve" text-anchor="start" x="876.05" y="-176.6" font-family="Helvetica,sans-Serif" font-size="10.00">Default GWs: 192.168.110.1 / 192.168.210.1</text>
<text xml:space="preserve" text-anchor="start" x="894.97" y="-166.6" font-family="Helvetica,sans-Serif" font-size="10.00">Dual-homed logically to site leaf pair</text>
</g>
<!-- YD1_A&#45;&gt;DEV2 -->
<!-- YD1_B&#45;&gt;BLDA_A -->
<!-- YD1_B&#45;&gt;DEV2 -->
<!-- BLDA_A&#45;&gt;BLDA_B -->
<!-- BLDA_A&#45;&gt;BLDA_B -->
<g id="edge24" class="edge">
<title>BLDA_A-&gt;BLDA_B</title>
<path fill="none" stroke="#666666" stroke-width="1.2" stroke-dasharray="5,2" d="M1506.87,-356.8C1566.8,-356.8 1645.37,-356.8 1705.37,-356.8"/>
<text xml:space="preserve" text-anchor="middle" x="1606.29" y="-362.5" font-family="Helvetica,sans-Serif" font-size="9.00">site pair interconnect / vPC or MLAG</text>
</g>
<!-- DEV3 -->
<g id="node16" class="node">
<title>DEV3</title>
<path fill="#f5f5f5" stroke="black" stroke-width="1.4" d="M1790.6,-221.8C1790.6,-221.8 1595.97,-221.8 1595.97,-221.8 1589.97,-221.8 1583.97,-215.8 1583.97,-209.8 1583.97,-209.8 1583.97,-169.4 1583.97,-169.4 1583.97,-163.4 1589.97,-157.4 1595.97,-157.4 1595.97,-157.4 1790.6,-157.4 1790.6,-157.4 1796.6,-157.4 1802.6,-163.4 1802.6,-169.4 1802.6,-169.4 1802.6,-209.8 1802.6,-209.8 1802.6,-215.8 1796.6,-221.8 1790.6,-221.8"/>
<text xml:space="preserve" text-anchor="start" x="1637.17" y="-206.6" font-family="Helvetica,sans-Serif" font-weight="bold" font-size="10.00">Building A End Devices</text>
<text xml:space="preserve" text-anchor="start" x="1616.02" y="-196.6" font-family="Helvetica,sans-Serif" font-size="10.00">Camera-BLDA-01: 192.168.110.31</text>
<text xml:space="preserve" text-anchor="start" x="1617.96" y="-186.6" font-family="Helvetica,sans-Serif" font-size="10.00">Sensor-BLDA-01: 192.168.210.31</text>
<text xml:space="preserve" text-anchor="start" x="1594.05" y="-176.6" font-family="Helvetica,sans-Serif" font-size="10.00">Default GWs: 192.168.110.1 / 192.168.210.1</text>
<text xml:space="preserve" text-anchor="start" x="1612.97" y="-166.6" font-family="Helvetica,sans-Serif" font-size="10.00">Dual-homed logically to site leaf pair</text>
</g>
<!-- BLDA_A&#45;&gt;DEV3 -->
<!-- BLDA_B&#45;&gt;YD2_A -->
<!-- BLDA_B&#45;&gt;DEV3 -->
<!-- YD2_A&#45;&gt;YD2_B -->
<!-- YD2_A&#45;&gt;YD2_B -->
<g id="edge25" class="edge">
<title>YD2_A-&gt;YD2_B</title>
<path fill="none" stroke="#666666" stroke-width="1.2" stroke-dasharray="5,2" d="M2170.87,-356.8C2230.8,-356.8 2309.37,-356.8 2369.37,-356.8"/>
<text xml:space="preserve" text-anchor="middle" x="2270.29" y="-362.5" font-family="Helvetica,sans-Serif" font-size="9.00">site pair interconnect / vPC or MLAG</text>
</g>
<!-- DEV4 -->
<g id="node17" class="node">
<title>DEV4</title>
<path fill="#f5f5f5" stroke="black" stroke-width="1.4" d="M2265.6,-221.8C2265.6,-221.8 2070.97,-221.8 2070.97,-221.8 2064.97,-221.8 2058.97,-215.8 2058.97,-209.8 2058.97,-209.8 2058.97,-169.4 2058.97,-169.4 2058.97,-163.4 2064.97,-157.4 2070.97,-157.4 2070.97,-157.4 2265.6,-157.4 2265.6,-157.4 2271.6,-157.4 2277.6,-163.4 2277.6,-169.4 2277.6,-169.4 2277.6,-209.8 2277.6,-209.8 2277.6,-215.8 2271.6,-221.8 2265.6,-221.8"/>
<text xml:space="preserve" text-anchor="start" x="2121.88" y="-206.6" font-family="Helvetica,sans-Serif" font-weight="bold" font-size="10.00">Yard 2 End Devices</text>
<text xml:space="preserve" text-anchor="start" x="2094.35" y="-196.6" font-family="Helvetica,sans-Serif" font-size="10.00">Camera-YD2-01: 192.168.110.41</text>
<text xml:space="preserve" text-anchor="start" x="2096.29" y="-186.6" font-family="Helvetica,sans-Serif" font-size="10.00">Sensor-YD2-01: 192.168.210.41</text>
<text xml:space="preserve" text-anchor="start" x="2069.05" y="-176.6" font-family="Helvetica,sans-Serif" font-size="10.00">Default GWs: 192.168.110.1 / 192.168.210.1</text>
<text xml:space="preserve" text-anchor="start" x="2087.97" y="-166.6" font-family="Helvetica,sans-Serif" font-size="10.00">Dual-homed logically to site leaf pair</text>
</g>
<!-- YD2_A&#45;&gt;DEV4 -->
<!-- YD2_B&#45;&gt;DEV4 -->
<!-- DEV1&#45;&gt;CAB1_A -->
<g id="edge49" class="edge">
<title>DEV1-&gt;CAB1_A</title>
<path fill="none" stroke="black" stroke-width="1.2" d="M394.5,-222.41C333.01,-249.29 244.69,-287.88 178.87,-316.65"/>
<text xml:space="preserve" text-anchor="middle" x="341.41" y="-260.5" font-family="Helvetica,sans-Serif" font-size="9.00">access VLANs</text>
</g>
<!-- DEV1&#45;&gt;CAB1_B -->
<g id="edge50" class="edge">
<title>DEV1-&gt;CAB1_B</title>
<path fill="none" stroke="black" stroke-width="1.2" d="M483.59,-222.04C487.74,-245.16 488.62,-277.11 486.23,-303.98"/>
</g>
<!-- DEV1&#45;&gt;DEV2 -->
<!-- NOTES -->
<g id="node18" class="node">
<title>NOTES</title>
<path fill="#f5f5f5" stroke="black" stroke-width="1.4" d="M646.29,-84.4C646.29,-84.4 288.29,-84.4 288.29,-84.4 282.29,-84.4 276.29,-78.4 276.29,-72.4 276.29,-72.4 276.29,-12 276.29,-12 276.29,-6 282.29,0 288.29,0 288.29,0 646.29,0 646.29,0 652.29,0 658.29,-6 658.29,-12 658.29,-12 658.29,-72.4 658.29,-72.4 658.29,-78.4 652.29,-84.4 646.29,-84.4"/>
<text xml:space="preserve" text-anchor="start" x="286.37" y="-69.2" font-family="Helvetica,sans-Serif" font-size="10.00">      </text>
<text xml:space="preserve" text-anchor="start" x="303.04" y="-69.2" font-family="Helvetica,sans-Serif" font-weight="bold" font-size="10.00">Notes</text>
<text xml:space="preserve" text-anchor="start" x="286.37" y="-59.2" font-family="Helvetica,sans-Serif" font-size="10.00">      • BGP EVPN overlay runs between leaf pairs and border leafs only.</text>
<text xml:space="preserve" text-anchor="start" x="286.37" y="-49.2" font-family="Helvetica,sans-Serif" font-size="10.00">      • OSPF underlay runs on routed fabric links and provides ECMP.</text>
<text xml:space="preserve" text-anchor="start" x="286.37" y="-39.2" font-family="Helvetica,sans-Serif" font-size="10.00">      • Same anycast gateway IPs exist at every site for VLAN 110 and VLAN 210.</text>
<text xml:space="preserve" text-anchor="start" x="286.37" y="-29.2" font-family="Helvetica,sans-Serif" font-size="10.00">      • Border Leafs and Leafs participate in BOTH OSPF and BGP EVPN.</text>
<text xml:space="preserve" text-anchor="start" x="286.37" y="-19.2" font-family="Helvetica,sans-Serif" font-size="10.00">      • End devices are shown attached to the site pair, not a single leaf.</text>
<text xml:space="preserve" text-anchor="start" x="297.77" y="-9.2" font-family="Helvetica,sans-Serif" font-size="10.00">      • Spines are shown as OSPF-only in this design; BGP RR is optional.    </text>
</g>
<!-- DEV1&#45;&gt;NOTES -->
<!-- DEV2&#45;&gt;YD1_A -->
<g id="edge51" class="edge">
<title>DEV2-&gt;YD1_A</title>
<path fill="none" stroke="black" stroke-width="1.2" d="M932.71,-222.28C901.66,-245.39 858.91,-277.2 822.92,-303.98"/>
<text xml:space="preserve" text-anchor="middle" x="913.43" y="-260.5" font-family="Helvetica,sans-Serif" font-size="9.00">access VLANs</text>
</g>
<!-- DEV2&#45;&gt;YD1_B -->
<g id="edge52" class="edge">
<title>DEV2-&gt;YD1_B</title>
<path fill="none" stroke="black" stroke-width="1.2" d="M1021.55,-222.28C1047.48,-245.39 1078.39,-277.2 1101.3,-303.98"/>
</g>
<!-- DEV2&#45;&gt;DEV3 -->
<!-- DEV3&#45;&gt;BLDA_A -->
<g id="edge53" class="edge">
<title>DEV3-&gt;BLDA_A</title>
<path fill="none" stroke="black" stroke-width="1.2" d="M1640.35,-222.28C1601.75,-245.39 1548.6,-277.2 1503.86,-303.98"/>
<text xml:space="preserve" text-anchor="middle" x="1609.27" y="-260.5" font-family="Helvetica,sans-Serif" font-size="9.00">access VLANs</text>
</g>
<!-- DEV3&#45;&gt;BLDA_B -->
<g id="edge54" class="edge">
<title>DEV3-&gt;BLDA_B</title>
<path fill="none" stroke="black" stroke-width="1.2" d="M1729,-222.04C1747.43,-245.16 1768.03,-277.11 1782.24,-303.98"/>
</g>
<!-- DEV3&#45;&gt;DEV4 -->
<!-- DEV4&#45;&gt;YD2_A -->
<g id="edge55" class="edge">
<title>DEV4-&gt;YD2_A</title>
<path fill="none" stroke="black" stroke-width="1.2" d="M2151.73,-222.04C2139.55,-245.16 2122.73,-277.11 2108.58,-303.98"/>
<text xml:space="preserve" text-anchor="middle" x="2161.84" y="-260.5" font-family="Helvetica,sans-Serif" font-size="9.00">access VLANs</text>
</g>
<!-- DEV4&#45;&gt;YD2_B -->
<g id="edge56" class="edge">
<title>DEV4-&gt;YD2_B</title>
<path fill="none" stroke="black" stroke-width="1.2" d="M2240.45,-222.28C2285.25,-245.39 2342.16,-277.2 2386.96,-303.98"/>
</g>
</g>
</svg>